<svg id="Layer_1" data-name="Layer 1" xmlns="http://www.w3.org/2000/svg" viewBox="0 0 368 183"><defs><style>.cls-1{fill:none;}.cls-2{fill:#fff;}</style></defs><rect class="cls-1" width="368" height="183"/><path class="cls-2" d="M73.82,223.38,53.44,193.74v29.64H32.94V129.66h20.5v51.8L73.7,152.71H99L71.18,188.17l28.05,35.21Z" transform="translate(-17.49 -85.52)"/><path class="cls-2" d="M106.85,168.79a30.07,30.07,0,0,1,10.61-12.66,26.55,26.55,0,0,1,15-4.44,24.7,24.7,0,0,1,12.41,3,21.8,21.8,0,0,1,8.21,8v-10h20.5v70.67h-20.5v-10a22.59,22.59,0,0,1-8.33,8,24.6,24.6,0,0,1-12.41,3,26.17,26.17,0,0,1-14.86-4.49,30.56,30.56,0,0,1-10.61-12.8,49,49,0,0,1,0-38.31Zm42,6.46a13.86,13.86,0,0,0-20.73-.06q-4.26,4.62-4.26,12.73t4.26,12.85a13.74,13.74,0,0,0,20.73.06q4.26-4.68,4.26-12.79T148.8,175.25Z" transform="translate(-17.49 -85.52)"/><path class="cls-2" d="M248,160q6.94,8,6.95,22.1v41.29H234.57V185q0-7.09-3.47-11a13.11,13.11,0,0,0-18.7,0q-3.48,3.93-3.48,11v38.38h-20.5V129.66h20.5V162.2a22.35,22.35,0,0,1,8.51-7.47A26.09,26.09,0,0,1,229.54,152Q241,152,248,160Z" transform="translate(-17.49 -85.52)"/><path class="cls-2" d="M289.72,129.66v93.72h-20.5V129.66Z" transform="translate(-17.49 -85.52)"/><path class="cls-2" d="M317.35,220A31.59,31.59,0,0,1,305,207.29a43.12,43.12,0,0,1,.06-38.44,31.69,31.69,0,0,1,12.47-12.72,37.66,37.66,0,0,1,35.48,0,31.69,31.69,0,0,1,12.47,12.72A39.23,39.23,0,0,1,370,188a38.79,38.79,0,0,1-4.62,19.19A32.06,32.06,0,0,1,352.83,220a35.94,35.94,0,0,1-17.8,4.43A35.27,35.27,0,0,1,317.35,220ZM345,201.09q4.14-4.56,4.14-13.05t-4-13a13.14,13.14,0,0,0-19.84-.07q-4,4.5-4,13.11t3.9,13.05a12.32,12.32,0,0,0,9.77,4.56A13,13,0,0,0,345,201.09Z" transform="translate(-17.49 -85.52)"/></svg>